# xmcd CD database file
#
# Track frame offsets:
#	150
#	10731
#	22443
#	35039
#	46718
#	58735
#	71346
#	85967
#	99278
#	110824
#	124867
#	136482
#	149766
#	161968
#	174776
#	187321
#	197867
#	209902
#	220825
#	232858
#	244654
#	255586
#	266660
#	279145
#	289821
#	300215
#	309428
#	322826
#
# Disc length: 4441 seconds
#
# Revision: 0
# Processed by: cddbd v1.4b42PL1 Copyright (c) Steve Scherf et al.
# Submitted via: CDex 1.40Beta6
#
DISCID=a311571c
DTITLE=The York Brothers - The York Brothers' Best - Detroit in the 40's and 5
DTITLE=0's vol.01
DYEAR=1900
DGENRE=Country
TTITLE0=Going To The Shindig
TTITLE1=Mountain Rosa Lee
TTITLE2=You're The One
TTITLE3=Let's Talk Our Troubles Over
TTITLE4=It Taint No Good
TTITLE5=Highland Park Girl
TTITLE6=Hamtramck Mama
TTITLE7=Detroit Hula Girl
TTITLE8=Gamblers Blues
TTITLE9=Going Home
TTITLE10=I Ain't Foolin'
TTITLE11=New Mississippi River Blues
TTITLE12=It Ain't No Good
TTITLE13=Motor City Boogie
TTITLE14=Lookin' For Someone New
TTITLE15=Saint Joseph's High School Bounce
TTITLE16=Geavy Train
TTITLE17=Sixty Minute Man
TTITLE18=I'm Coming Home To Stay
TTITLE19=Chicken Blues
TTITLE20=That's Why I'm Crying All The Time
TTITLE21=Don't Leave Me With The Yum Yum Blues
TTITLE22=Tremblin'
TTITLE23=Lakewood And John Marshall Blues
TTITLE24=Love Sweet Love
TTITLE25=You Get Mad
TTITLE26=Mister Midnight
TTITLE27=Pretty Little Thing
EXTD=
EXTT0=
EXTT1=
EXTT2=
EXTT3=
EXTT4=
EXTT5=
EXTT6=
EXTT7=
EXTT8=
EXTT9=
EXTT10=
EXTT11=
EXTT12=
EXTT13=
EXTT14=
EXTT15=
EXTT16=
EXTT17=
EXTT18=
EXTT19=
EXTT20=
EXTT21=
EXTT22=
EXTT23=
EXTT24=
EXTT25=
EXTT26=
EXTT27=
PLAYORDER=
